<svg xmlns="http://www.w3.org/2000/svg" id="Layer_1" viewBox="0 0 200.00403 55.000003" height="55" width="200"><style id="style3">.st0{fill:none;stroke:#000;stroke-width:.35}</style><g id="g7" fill="#fff"><path d="M103.73 23.226v-.033c0-3.277 2.45-5.993 5.86-5.993 2.103 0 3.361.745 4.52 1.838l-.894.96c-.977-.927-2.069-1.589-3.642-1.589-2.566 0-4.487 2.086-4.487 4.751v.033c0 2.683 1.937 4.785 4.487 4.785 1.589 0 2.632-.612 3.741-1.672l.86.844c-1.208 1.226-2.532 2.036-4.635 2.036-3.343 0-5.81-2.632-5.81-5.96z" id="path9" transform="translate(-12.035 -15.73)"/><path d="M121.25 17.316h1.226l5.281 11.672h-1.407l-1.358-3.063h-6.308l-1.374 3.063h-1.341l5.281-11.672zm3.228 7.417l-2.633-5.894-2.648 5.894h5.281z" id="path11" transform="translate(-12.035 -15.73)"/><path d="M130.54 17.399h1.324l4.222 6.324 4.222-6.324h1.325v11.589h-1.309v-9.387l-4.222 6.208h-.065l-4.222-6.191v9.37h-1.275V17.399z" id="path13" transform="translate(-12.035 -15.73)"/><path d="M145.41 17.399h4.934c1.324 0 2.367.381 3.03 1.026.479.496.744 1.109.744 1.854v.033c0 1.506-.927 2.284-1.837 2.682 1.374.414 2.483 1.209 2.483 2.798v.033c0 1.986-1.673 3.162-4.205 3.162h-5.149V17.399zm7.384 3.062c0-1.143-.91-1.888-2.566-1.888h-3.526v3.99h3.428c1.572 0 2.665-.712 2.665-2.069v-.033zm-2.434 3.262h-3.659v4.089h3.891c1.755 0 2.848-.777 2.848-2.069v-.033c-.001-1.258-1.06-1.987-3.08-1.987z" id="path15" transform="translate(-12.035 -15.73)"/><path d="M157.86 17.399h4.983c1.423 0 2.565.431 3.294 1.159.563.563.895 1.374.895 2.284v.033c0 1.921-1.325 3.046-3.146 3.377l3.559 4.735h-1.605l-3.36-4.503h-3.312v4.503h-1.308V17.399zm4.867 5.91c1.738 0 2.979-.894 2.979-2.384v-.033c0-1.424-1.093-2.285-2.963-2.285h-3.576v4.702h3.56z" id="path17" transform="translate(-12.035 -15.73)"/><path d="M170.45 17.399h1.309v11.589h-1.309V17.399z" id="path19" transform="translate(-12.035 -15.73)"/><path d="M175.65 17.399h4.022c3.643 0 6.159 2.5 6.159 5.761v.033c0 3.262-2.517 5.795-6.159 5.795h-4.022V17.399zm1.308 1.208v9.172h2.715c2.931 0 4.802-1.986 4.802-4.553v-.033c0-2.565-1.871-4.586-4.802-4.586h-2.715z" id="path21" transform="translate(-12.035 -15.73)"/><path d="M188.58 23.226v-.033c0-3.179 2.334-5.993 5.812-5.993 1.953 0 3.162.563 4.321 1.54l-.845.993c-.894-.778-1.888-1.324-3.526-1.324-2.566 0-4.404 2.169-4.404 4.751v.033c0 2.766 1.771 4.818 4.586 4.818 1.325 0 2.55-.514 3.345-1.159v-2.881h-3.526v-1.175h4.784v4.618a7.014 7.014 0 0 1-4.651 1.771c-3.644.001-5.896-2.647-5.896-5.959z" id="path23" transform="translate(-12.035 -15.73)"/><path d="M202.58 17.399h8.378v1.191h-7.069v3.957h6.324v1.192h-6.324v4.056h7.151v1.192h-8.46V17.399z" id="path25" transform="translate(-12.035 -15.73)"/></g><g id="g27" fill="#fff"><path d="M104.06 43.487v-6.738h1.308v6.655c0 2.5 1.341 3.907 3.543 3.907 2.136 0 3.494-1.291 3.494-3.824v-6.738h1.308v6.639c0 3.376-1.937 5.131-4.834 5.131-2.865 0-4.819-1.755-4.819-5.032z" id="path29" transform="translate(-12.035 -15.73)"/><path d="M117.43 36.749h1.226l7.301 9.288v-9.288h1.274v11.588h-1.043l-7.482-9.502v9.502h-1.275V36.749z" id="path31" transform="translate(-12.035 -15.73)"/><path d="M131.22 36.749h1.309v11.588h-1.309V36.749z" id="path33" transform="translate(-12.035 -15.73)"/><path d="M135.54 36.749h1.457l4.122 9.983 4.139-9.983h1.407l-4.982 11.671h-1.159l-4.984-11.671z" id="path35" transform="translate(-12.035 -15.73)"/><path d="M149.55 36.749h8.377v1.191h-7.069v3.957h6.324v1.192h-6.324v4.055h7.152v1.192h-8.46V36.749z" id="path37" transform="translate(-12.035 -15.73)"/><path d="M161.24 36.749h4.983c1.424 0 2.566.431 3.295 1.159.563.563.894 1.374.894 2.284v.033c0 1.921-1.324 3.046-3.146 3.377l3.56 4.735h-1.605l-3.361-4.502h-3.312v4.502h-1.308V36.749zm4.867 5.91c1.738 0 2.98-.894 2.98-2.384v-.033c0-1.424-1.093-2.285-2.964-2.285h-3.576v4.702h3.56z" id="path39" transform="translate(-12.035 -15.73)"/><path d="M173.06 46.648l.812-.96c1.209 1.092 2.367 1.639 3.974 1.639 1.556 0 2.582-.828 2.582-1.971v-.032c0-1.076-.579-1.689-3.013-2.202-2.666-.58-3.891-1.44-3.891-3.345v-.033c0-1.821 1.605-3.162 3.808-3.162 1.688 0 2.897.48 4.073 1.424l-.762 1.01c-1.076-.877-2.152-1.258-3.345-1.258-1.506 0-2.467.828-2.467 1.871v.033c0 1.092.597 1.705 3.146 2.251 2.583.563 3.775 1.507 3.775 3.278v.033c0 1.986-1.656 3.278-3.957 3.278-1.837.001-3.344-.612-4.735-1.854z" id="path41" transform="translate(-12.035 -15.73)"/><path d="M185.14 36.749h1.308v11.588h-1.308V36.749z" id="path43" transform="translate(-12.035 -15.73)"/><path d="M193.52 37.957h-3.891v-1.208h9.105v1.208h-3.891v10.38h-1.324v-10.38z" id="path45" transform="translate(-12.035 -15.73)"/><path d="M205.4 43.751l-4.817-7.003h1.589l3.907 5.794 3.94-5.794h1.523l-4.818 6.986v4.602H205.4v-4.585z" id="path47" transform="translate(-12.035 -15.73)"/></g><g id="g49" fill="#fff"><path d="M104.76 55.771h2.414V67.31h7.221v2.197h-9.635V55.771z" id="path51" transform="translate(-12.035 -15.73)"/><path d="M119.87 55.771h2.414v13.736h-2.414V55.771z" id="path53" transform="translate(-12.035 -15.73)"/><path d="M129.2 55.771h6.161c1.57 0 2.807.432 3.591 1.217.608.608.923 1.354.923 2.276v.039c0 1.648-.942 2.531-1.963 3.062 1.609.549 2.728 1.472 2.728 3.336v.039c0 2.453-2.021 3.768-5.082 3.768h-6.357V55.771zm8.261 3.885c0-1.079-.863-1.746-2.413-1.746h-3.474v3.649h3.297c1.55 0 2.59-.608 2.59-1.864v-.039zm-2.06 3.945h-3.826v3.768h4.003c1.648 0 2.649-.647 2.649-1.884v-.039c0-1.159-.923-1.845-2.826-1.845z" id="path55" transform="translate(-12.035 -15.73)"/><path d="M146.46 55.771h6.122c1.728 0 3.081.511 3.964 1.374.727.745 1.139 1.766 1.139 2.963v.039c0 2.257-1.354 3.611-3.258 4.16l3.709 5.2h-2.865l-3.375-4.788h-3.021v4.788h-2.414V55.771zm5.946 6.809c1.727 0 2.825-.902 2.825-2.296v-.039c0-1.472-1.06-2.276-2.845-2.276h-3.513v4.611h3.533z" id="path57" transform="translate(-12.035 -15.73)"/><path d="M168.48 55.673h2.237l6.044 13.834h-2.551l-1.394-3.316h-6.495l-1.413 3.316h-2.472l6.044-13.834zm3.455 8.379l-2.374-5.494-2.355 5.494h4.729z" id="path59" transform="translate(-12.035 -15.73)"/><path d="M182.14 55.771h6.122c1.727 0 3.081.511 3.964 1.374.726.745 1.139 1.766 1.139 2.963v.039c0 2.257-1.354 3.611-3.258 4.16l3.709 5.2h-2.865l-3.375-4.788h-3.022v4.788h-2.413V55.771zm5.945 6.809c1.727 0 2.826-.902 2.826-2.296v-.039c0-1.472-1.06-2.276-2.846-2.276h-3.513v4.611h3.533z" id="path61" transform="translate(-12.035 -15.73)"/><path d="M203.35 64.091l-5.455-8.32h2.864l3.827 6.063 3.885-6.063h2.767l-5.455 8.262v5.475h-2.433v-5.417z" id="path63" transform="translate(-12.035 -15.73)"/></g><g id="g65" fill="#fff"><path d="M15.264 59.701l-1.815.564-.261-.88 2.351-.812h.797v9.692h-1.072v-8.564z" id="path67" transform="translate(-12.035 -15.73)"/><path d="M24.804 65.984H19.73l-.275-.798 5.444-6.612h.962v6.503h1.484v.907h-1.484v2.282h-1.059v-2.282zm0-.907v-4.963l-4.042 4.963h4.042z" id="path69" transform="translate(-12.035 -15.73)"/><path d="M31.647 59.701l-1.815.564-.261-.88 2.351-.812h.797v9.692h-1.072v-8.564z" id="path71" transform="translate(-12.035 -15.73)"/><path d="M37.392 67.455c-.77-.77-1.209-1.76-1.209-3.726v-.027c0-2.929 1.484-5.225 4-5.225 1.155 0 2.007.413 2.846 1.101l-.632.838c-.715-.604-1.389-.948-2.269-.948-1.856 0-2.832 1.952-2.832 4.124v.138c.632-.921 1.499-1.484 2.75-1.484 1.788 0 3.327 1.154 3.327 2.956v.027c0 1.855-1.499 3.203-3.451 3.203-1.059 0-1.925-.371-2.53-.977zm4.867-2.185v-.027c0-1.183-.962-2.063-2.351-2.063-1.444 0-2.406 1.031-2.406 2.104v.027c0 1.224 1.017 2.158 2.433 2.158s2.324-.976 2.324-2.199z" id="path73" transform="translate(-12.035 -15.73)"/><path d="M47.713 63.606h5.472v1.059h-5.472v-1.059z" id="path75" transform="translate(-12.035 -15.73)"/><path d="M56.331 67.428l3.492-3.079c1.471-1.32 2.007-2.063 2.007-3.024 0-1.128-.894-1.843-1.938-1.843-1.1 0-1.815.577-2.584 1.649l-.797-.577c.866-1.292 1.773-2.048 3.464-2.048 1.732 0 2.983 1.154 2.983 2.722v.027c0 1.402-.743 2.269-2.434 3.739l-2.571 2.282h5.101v.99h-6.723v-.838z" id="path77" transform="translate(-12.035 -15.73)"/><path d="M65.897 63.482v-.027c0-2.695 1.608-4.978 4.083-4.978s4.042 2.255 4.042 4.949v.028c0 2.694-1.595 4.977-4.069 4.977-2.488.001-4.056-2.254-4.056-4.949zm6.998 0v-.027c0-2.104-1.155-3.987-2.942-3.987-1.801 0-2.929 1.842-2.929 3.959v.028c0 2.104 1.155 3.986 2.956 3.986 1.802 0 2.915-1.855 2.915-3.959z" id="path79" transform="translate(-12.035 -15.73)"/><path d="M78.446 59.701l-1.815.564-.261-.88 2.351-.812h.797v9.692h-1.072v-8.564z" id="path81" transform="translate(-12.035 -15.73)"/><path d="M84.232 67.455c-.77-.77-1.209-1.76-1.209-3.726v-.027c0-2.929 1.484-5.225 4-5.225 1.155 0 2.007.413 2.846 1.101l-.632.838c-.715-.604-1.389-.948-2.269-.948-1.856 0-2.832 1.952-2.832 4.124v.138c.632-.921 1.499-1.484 2.75-1.484 1.788 0 3.327 1.154 3.327 2.956v.027c0 1.855-1.499 3.203-3.451 3.203-1.058 0-1.925-.371-2.53-.977zM89.1 65.27v-.027c0-1.183-.962-2.063-2.351-2.063-1.444 0-2.406 1.031-2.406 2.104v.027c0 1.224 1.017 2.158 2.433 2.158s2.324-.976 2.324-2.199z" id="path83" transform="translate(-12.035 -15.73)"/></g><g id="g85" fill="#fff"><path d="M21.738 48.599c-5.366 0-9.205-3.533-9.205-9.292 0-2.53.96-4.93 2.312-7.635l7.067-14.396h4.755l-6.675 13.349c.829-.349 1.789-.479 2.749-.479 4.493 0 8.158 3.533 8.158 8.986 0 5.715-3.795 9.467-9.161 9.467zm-.044-14.745c-2.792 0-4.711 2.007-4.711 5.366 0 3.315 1.919 5.409 4.711 5.409 2.792 0 4.755-2.093 4.755-5.409.001-3.053-1.788-5.366-4.755-5.366z" id="path87" transform="translate(-12.035 -15.73)"/><path d="M44.598 48.599c-4.929 0-8.943-3.359-8.943-8.899V25.915c0-5.541 4.014-8.899 8.943-8.899 4.93 0 8.987 3.358 8.987 8.899V39.7c0 5.539-4.057 8.899-8.987 8.899zm4.537-22.554c0-3.011-1.701-5.061-4.537-5.061-2.835 0-4.493 2.05-4.493 5.061v13.523c0 3.01 1.658 5.06 4.493 5.06 2.836 0 4.537-2.05 4.537-5.06V26.045z" id="path89" transform="translate(-12.035 -15.73)"/><path d="M67.677 48.599c-4.929 0-8.943-3.359-8.943-8.899V25.915c0-5.541 4.014-8.899 8.943-8.899 4.93 0 8.987 3.358 8.987 8.899V39.7c0 5.539-4.058 8.899-8.987 8.899zm4.537-22.554c0-3.011-1.701-5.061-4.537-5.061-2.835 0-4.493 2.05-4.493 5.061v13.523c0 3.01 1.658 5.06 4.493 5.06 2.836 0 4.537-2.05 4.537-5.06V26.045z" id="path91" transform="translate(-12.035 -15.73)"/></g><g id="g93" fill="#fff"><path d="M86.146 19.481l3.911-2.69v.888l-3.236 2.182 3.236 2.201v.851l-3.902-2.69h-2.571v-.74h2.562z" id="path95" transform="translate(-12.035 -15.73)"/><path d="M90.058 23.988v4.68h-.666v-3.949h-2.21v3.533h-.666v-3.533h-2.265v3.995h-.666v-4.726h6.473z" id="path97" transform="translate(-12.035 -15.73)"/><path d="M90.104 32.49v.684l-6.519 2.95v-.786l1.71-.758v-3.523l-1.71-.768v-.749l6.519 2.95zm-4.143 1.802l3.292-1.47-3.292-1.479v2.949z" id="path99" transform="translate(-12.035 -15.73)"/><path d="M90.058 37.312v2.783c0 .796-.24 1.434-.647 1.841-.314.314-.768.499-1.276.499h-.019c-1.072 0-1.701-.739-1.886-1.757l-2.645 1.988v-.897l2.515-1.877v-1.85h-2.515v-.73h6.473zm-3.301 2.719c0 .971.499 1.665 1.332 1.665h.018c.795 0 1.276-.61 1.276-1.655v-1.998h-2.626v1.988z" id="path101" transform="translate(-12.035 -15.73)"/><path d="M84.528 43.485l.536.453c-.61.674-.916 1.322-.916 2.218 0 .869.462 1.442 1.101 1.442h.019c.601 0 .943-.323 1.229-1.683.324-1.488.805-2.172 1.868-2.172h.019c1.017 0 1.766.896 1.766 2.126 0 .943-.269 1.618-.795 2.274l-.564-.425c.49-.602.703-1.202.703-1.868 0-.842-.462-1.378-1.045-1.378h-.019c-.61 0-.952.333-1.257 1.757-.314 1.442-.842 2.108-1.831 2.108h-.019c-1.109 0-1.831-.925-1.831-2.21.001-1.024.342-1.866 1.036-2.642z" id="path103" transform="translate(-12.035 -15.73)"/></g><path style="line-height:normal;text-indent:0;text-align:start;text-decoration-line:none;text-decoration-style:solid;text-decoration-color:#000;text-transform:none;block-progression:tb;isolation:auto;mix-blend-mode:normal" d="M85.64-.227v55.454h.352V-.227h-.351z" id="line105" color="#000" font-weight="400" font-family="sans-serif" white-space="normal" overflow="visible" fill="#fff" stroke-width=".35"/></svg>